{
    "accessors" : [
        {
            "bufferView" : 0,
            "componentType" : 5123,
            "count" : 37986,
            "max" : [
                25371
            ],
            "min" : [
                0
            ],
            "type" : "SCALAR"
        },
        {
            "bufferView" : 1,
            "componentType" : 5126,
            "count" : 25372,
            "max" : [
                63.156829833984375,
                11.649456977844238,
                -14.573582649230957
            ],
            "min" : [
                -63.156829833984375,
                -15.145347595214844,
                -181.95843505859375
            ],
            "type" : "VEC3"
        },
        {
            "bufferView" : 2,
            "componentType" : 5126,
            "count" : 25372,
            "max" : [
                0.9999350309371948,
                0.9999988675117493,
                0.9992091059684753
            ],
            "min" : [
                -0.9999350309371948,
                -0.9993144869804382,
                -0.9990777373313904
            ],
            "type" : "VEC3"
        }
    ],
    "asset" : {
        "generator" : "Khronos Blender glTF 2.0 exporter",
        "version" : "2.0"
    },
    "bufferViews" : [
        {
            "buffer" : 0,
            "byteLength" : 75972,
            "byteOffset" : 0,
            "target" : 34963
        },
        {
            "buffer" : 0,
            "byteLength" : 304464,
            "byteOffset" : 75972,
            "target" : 34962
        },
        {
            "buffer" : 0,
            "byteLength" : 304464,
            "byteOffset" : 380436,
            "target" : 34962
        }
    ],
    "buffers" : [
        {
            "byteLength" : 684900,
            "uri" : "data:application/octet-stream;base64,"
        }
    ],
    "meshes" : [
        {
            "name" : "Group55535",
            "primitives" : [
                {
                    "attributes" : {
                        "NORMAL" : 2,
                        "POSITION" : 1
                    },
                    "indices" : 0
                }
            ]
        }
    ],
    "nodes" : [
        {
            "mesh" : 0,
            "name" : "Group55535",
            "rotation" : [
                0.7071068286895752,
                0.0,
                -0.0,
                0.7071067094802856
            ]
        }
    ],
    "scene" : 0,
    "scenes" : [
        {
            "name" : "Scene",
            "nodes" : [
                0
            ]
        }
    ]
}
